<svg xmlns="http://www.w3.org/2000/svg" width="159" height="159" viewBox="0 0 159 159"><g transform="translate(-1388 -4474)"><rect width="159" height="159" rx="10" transform="translate(1388 4474)" fill="#fff"/><path d="M1419.388 4560.993c0-7.584-.03-15.168.02-22.751a25.518 25.518 0 0 1 .479-5.987 11.854 11.854 0 0 1 2.023-4.8c.738-.91 1.666-1.666 2.406-2.574a11.114 11.114 0 0 1 4.923-3.174 31.81 31.81 0 0 1 1.7-.615 12.731 12.731 0 0 1 8.275.239 5.63 5.63 0 0 0 .574.177 13.424 13.424 0 0 1 6.718 4.274 17.185 17.185 0 0 1 3.176 5.569c.869 2.12 1.644 4.281 2.416 6.44.569 1.591 1.06 3.209 1.6 4.81.312.923.66 1.833.98 2.753q.791 2.274 1.568 4.554c.844 2.469 1.663 4.946 2.531 7.406 1.038 2.946 2.128 5.873 3.168 8.818.247.7.371 1.441.57 2.158a4.251 4.251 0 0 0 1.065 2.118 1.608 1.608 0 0 0 2.727-.683 5.522 5.522 0 0 0 .181-1.526q.015-15.255 0-30.508a25.272 25.272 0 0 1 1.088-6.932 12.062 12.062 0 0 1 3.613-5.645 16.01 16.01 0 0 1 5.527-3.266c.486-.173.969-.353 1.453-.534a13.6 13.6 0 0 1 4.638-.845c4.4-.054 8.8-.092 13.195-.066a18.989 18.989 0 0 1 4.011.414 23.938 23.938 0 0 1 4.238 1.408 13.7 13.7 0 0 1 2.594 1.668q1.8 1.329 3.514 2.764a11.715 11.715 0 0 1 2.715 3.634 20.467 20.467 0 0 1 2.265 6.282 24 24 0 0 1 .1 6.341 18.072 18.072 0 0 1-2.07 6.426c-.387.759-.979 1.41-1.439 2.135-.849 1.338-.8 1.9.15 3.2a16.57 16.57 0 0 1 3.4 8.418 26.953 26.953 0 0 1-.744 8.785 16.909 16.909 0 0 1-1.5 3.364 18.6 18.6 0 0 1-4.629 5.487 17.051 17.051 0 0 1-5.466 3.367 23.364 23.364 0 0 1-6.521 1.51c-1.633.1-3.27.124-4.905.181h-.259c-1.29-.048-1.575-.34-1.571-1.6q.015-5.082.024-10.164c0-.43-.056-.859-.056-1.289 0-.725.184-1.027.905-1.136a18.982 18.982 0 0 1 2.228-.093c1.661-.053 3.323-.085 4.983-.165a3.2 3.2 0 0 0 2.416-1.481c.343-.458.659-.939.96-1.427a4.869 4.869 0 0 0 .193-4.772 5.329 5.329 0 0 0-3.516-3.3 14.348 14.348 0 0 0-2.641-.323c-1.319-.074-2.642-.069-3.964-.111-1.082-.035-1.454-.4-1.452-1.474 0-1.464.069-2.928.065-4.392 0-1.694-.053-3.387-.085-5.081-.009-.488-.041-.976-.03-1.463a1.374 1.374 0 0 1 1.391-1.531 13.918 13.918 0 0 1 1.547-.089c1.035-.013 2.071-.016 3.105 0a5.657 5.657 0 0 0 4.929-2.464 5.074 5.074 0 0 0 .94-4.689 6.156 6.156 0 0 0-2.6-3.608 3.609 3.609 0 0 0-1.356-.506 19.9 19.9 0 0 0-2.575-.185c-2.644-.034-5.288-.036-7.933-.05a14.133 14.133 0 0 0-3.247.311 4.487 4.487 0 0 0-3.21 2.611 8.126 8.126 0 0 0-.844 3.56c.03 9.968.048 19.936-.006 29.9a12.706 12.706 0 0 1-1.873 6.886 32.679 32.679 0 0 1-2.614 3.177 12.337 12.337 0 0 1-4.752 3.329 15.111 15.111 0 0 1-6.713 1.293 15.876 15.876 0 0 1-8.094-2.586 14.929 14.929 0 0 1-5.108-6.024c-.2-.412-.385-.835-.606-1.236a24.269 24.269 0 0 1-1.577-4.173c-.5-1.494-1.113-2.949-1.636-4.435-.694-1.971-1.339-3.958-2.025-5.932s-1.4-3.943-2.1-5.916c-.354-1-.691-2-1.05-3-.65-1.807-1.327-3.6-1.962-5.416q-1.661-4.746-3.275-9.508a6.4 6.4 0 0 0-1.281-2.213 1.018 1.018 0 0 0-1.583-.108 2.483 2.483 0 0 0-1 1.922 75.68 75.68 0 0 0-.079 3.265c.008 2.354.062 4.708.067 7.063.01 4.079-.007 8.158-.006 12.237q0 11.676.016 23.352a13.149 13.149 0 0 0 .14 1.621.968.968 0 0 1-.791 1.221 7.1 7.1 0 0 1-1.535.181c-3.077.016-6.154.009-9.231.007a5.626 5.626 0 0 1-.6-.031c-1.172-.127-1.439-.426-1.438-1.583v-23.18z" fill="#2e3192"/></g></svg>